<svg id="Laag_1" xmlns="http://www.w3.org/2000/svg" xmlns:xlink="http://www.w3.org/1999/xlink" viewBox="0 0 256 256" style="enable-background:new 0 0 256 256;"><g id="layer1"><path d="M212.4 200.7c-6.3-3.1-14.4-13.4-14.4-18.3.0-3.6-3.4-6.2-20.7-14.7-8.6-4.3-17-8.9-18.5-10-1.9-1.3-4.9-1.9-8.9-1.3-4.4.4-7.9-.3-12.7-2.6-3.6-1.7-6.7-3-7-2.7-.1.3-1.9 3-3.6 5.9-4.6 7.6-15.3 16.6-22 18.5-11.2 3-24-1.7-35-12.9-4-4.1-8-9.9-9-12.6-1.6-4.7-1.1-15.6.7-20.5.7-1.6-.9-2.7-5.4-4.4-5.9-2.1-6.6-2-11 .3-9.4 5-23.3 2.4-35.2-6.7-8.6-6.6-11.3-17.2-7-27 1.1-2.7 1.6-7.7 1.1-13.6-.7-11.6 2-19.5 7.4-20.9 2-.4 6.6.1 10.4 1.4 9.3 3.1 11.3 2.9 15-2 1.7-2.4 4.4-4.3 6-4.3 4 0 16.6 6 20.5 9.9 2.4 2.3 5.7 3.3 13.6 3.9 9.4.7 11.6.4 21.9-3.6 6.3-2.4 13.4-4.4 16-4.4 14.4.0 54.9 7.7 63.5 12.2 4.6 2.4 6.7 1 2.7-1.7-1.6-1.1-2.9-3.3-2.9-5 0-2.6.6-2.7 5.4-1.9 2.9.4 7.9 2.3 11 4 4.4 2.4 5.9 4.1 6.2 7.4.3 3.1 1.6 4.9 5 6.4 2.4 1.1 6.4 4.9 8.9 8.3 2.3 3.4 7.7 10.3 11.9 15.3l7.4 9.3-3.9.9c-9.3 2-17.6 5.3-23.9 9.2-9.3 5.9-8.2 6.6 2 1.1 10.2-5.3 20-6.6 32-4 4.4.9 9.7 3.1 11.7 4.9l3.7 3.1-5.4 3.7c-3.1 2.1-8 4.9-10.9 6.3-5.3 2.4-8.3 6.6-5.6 7.4 6.4 2.1 13.9 7.6 16 11.7 3.3 6 3.4 12.7.4 23-3 10.6-8.3 17.7-15.4 21.3C226.8 204.7 220.3 204.6 212.4 200.7zM233.6 190.7c-.1-1.9-.6-4.9-1.1-6.7l-1-3.6-3.7 4.9c-4.3 5.4-3.3 8.6 2.6 8.6C233 193.9 233.7 193.2 233.6 190.7zM243.4 185.3c4.7-7 4.1-8.6-2.7-8.6h-6l1 5.4c.4 2.9.9 6.2.9 7.2C236.6 192.4 239.9 190.4 243.4 185.3zM228.6 173.6c-1.3-2.1-4.7 4.3-4.7 8.9.0 3.1.3 3 2.9-1.9C228.3 177.6 229.1 174.4 228.6 173.6zM247.4 171.8c.4-1.1.0-3.4-.9-5.1-1.6-3-1.7-3-4.6-.4-1.6 1.4-3.4 3.7-4.1 5-1.1 2.3-.7 2.6 3.7 2.6C244.7 173.9 247 173 247.4 171.8zM236.1 167.8c4.6-4.3 4.1-5.9-1-3.3-2.3 1.3-4.3 3.1-4.3 4.3C230.8 171.8 232.3 171.6 236.1 167.8zM207.1 155.4c3-2.6 2.9-4-.4-4.9-1.9-.4-4.6 1.3-8.7 5.4l-6 6.2 4 2.1c4 2.1 4.1 2.1 6.6-2.4C203.8 159.3 206 156.4 207.1 155.4zM103 159.3c-.6-3.4-1.4-6.6-2.1-7.3-.6-.6-3.3 1.3-6 4.1-4.7 4.9-4.7 5.1-2.1 7.2 1.6 1.1 4.7 2 7 2C103.8 165.3 103.8 165.1 103 159.3zM121.7 152c1.1-2.3 1.9-4.3 1.6-4.6-.9-.7-15.4-1.7-16-1.1-.6.6.9 5.1 4.1 14.6C112.4 163.4 118.6 158 121.7 152zM186.8 151.4c5.7-5.6 6.7-8.2 3.6-9.4-1.9-.7-13.9 9.2-13.9 11.6.0 1.3 1.9 2.6 4.3 3C181.1 156.7 183.8 154.3 186.8 151.4zM92 148.5c2.4-3 4.4-5.7 4.4-6.2.0-1.4-8.7-6-9.6-5.1-1.7 1.6-2.3 16.6-.7 16.6C87 153.8 89.5 151.4 92 148.5zm128.8-4 4.7-3.4-7-3.1c-18.2-7.7-17.2-7.6-22-4.1-2.4 1.7-4.1 3.6-3.6 4 .9.9 20.9 10 22.3 10.2C215.7 148.1 218.1 146.5 220.8 144.5zM138.6 132.1c-9.7-17-14.9-23-22.9-26.9-3.6-1.7-7.6-4.7-8.9-6.6-3.3-5.1-27.6-16-27.6-12.4.0 1.6 5.4 4.9 10 6.3 2.4.7.4 1.1-6.7 1.1l-10.4.1v4c0 6.4-2.9 9.2-9.2 8.6-7.4-.6-9.6-4-6.3-9.7 2.4-4.1 2.4-4.3-.3-2.9-1.6.9-3.3 2.4-4 3.7-1.7 3.1-6.7.6-9.6-5.1-2.4-4.7-3.6-5.4-3.6-2.3.0 1.1 1.6 3.9 3.4 6.2 2.7 3.1 3.1 4.6 2 7.7-1.3 3.6-6.3 7-10.4 7-1 0-3.9-1.7-6.3-3.7-3.9-3.1-4.6-3.3-5.3-1.4-1.3 3.3 2 10.3 5.6 12 6.2 3 9.4 3.3 14.4 1.1 4.6-1.9 5.1-1.9 5.1.1s.4 2 3.6-.1c2-1.3 6.4-2.3 10.9-2.3 6.4.0 8.2-.7 12.7-4.9 11.4-10.3 30.8-10 44.3.7 8.4 6.7 11.4 11.9 12.4 22 .9 7.4.9 7.6 6.7 9 3.1.7 6.3 1.4 6.9 1.6C145.7 145.1 142.7 139.2 138.6 132.1zm-15 5c0-3.1-5.1-11.9-7-11.9-.7.0-3.3 3.3-5.7 7.2l-4.4 7.2h8.6C122.1 139.5 123.6 139.1 123.6 137.1zM106.4 130.2c5.3-7.6 3.6-9.4-5.1-5.7-9.2 3.9-9.9 5-5.3 8.7 2.1 1.9 4.4 3.3 5 3.4C101.5 136.7 104 133.8 106.4 130.2zM144.7 122.1c-.7-2-14.3-12.7-15.2-12-.1.3 1.1 3 3.3 5.9 2 3 3.6 6 3.6 6.6.0.7 2 1.3 4.4 1.3C143.7 123.8 145 123.2 144.7 122.1zM155.3 115.2c6.2-3.6 21.3-7.2 30.9-7.2 4 0 7.4-.6 7.4-1.3.0-1.4-19.2-3-38.9-3h-15.3l5.3 7.2c2.9 3.9 5.4 7.2 5.6 7.2S152.7 116.8 155.3 115.2zM39.2 105.6c0-.7-2.7-2.4-6.2-3.9-3.3-1.6-6.4-3.1-7-3.4-.7-.3-1.1.1-1.1 1s2.1 2.9 4.7 4.4C34.2 106.6 39.2 107.5 39.2 105.6zm-3-7c-6.9-3.6-10.6-4.3-9-1.9 1.3 2.3 12.3 7 14 6C41.9 102.3 39.6 100.5 36.2 98.6zM206 98.8c-3.1-4.9-15.3-13.4-17.6-12.6-1.3.4-1.4 1.4-.7 2.4.7.9 2.1 3.9 3 6.7 1.4 4.7 2.3 5.1 9.2 6.4 4 .7 7.7 1.1 8 1S207.2 100.8 206 98.8zM22.3 95.6c.3-4.4 1-5.3 3.1-5 6 1.1 7.4-10.2 1.6-12.9-2-.9-3.6-2.7-3.6-4 0-2.6.7-2.7 15.4-5 3.3-.6 6-1.4 6-2 0-1.9-10.2-4-17-3.7-5.6.3-6.7.9-9.2 5.1C16.1 72.4 16 74.6 17 87c.7 10.2 1.4 13.9 2.9 13.9C21.2 100.9 22 98.9 22.3 95.6zM185.1 96.3c0-1.9-2.1-7.2-4.7-11.9-5.1-9.7-5-9.6-28.5-11.4l-12.3-1-7.3 6.7c-4 3.7-7.3 7.4-7.3 8 0 .7 2.3 3.9 5.1 7l5.1 5.7h24.9C185.1 99.5 185.1 99.5 185.1 96.3zM12.6 83.6c.7-7.9.6-12.2-.6-13.4-1.1-1.4-1-3 .6-6.3 2.7-5 2.7-5.9.9-5.9-.7.0-2.7 2.6-4.3 5.7-3 5.9-4 20-1.4 20 .9.0 1.4 2.6 1.4 5.7C9.1 99.6 11.6 95.5 12.6 83.6zM119.8 89.3c-.4-.9-4.1-3.1-8.2-5-5.4-2.4-7.6-2.9-8.4-1.6-2.3 3.6-.9 4.9 7.2 6.3 4.4.9 8.7 1.6 9.3 1.7C120.4 90.7 120.4 90.2 119.8 89.3zM96.2 82.7c1.7-3.4.9-4.1-2.6-2-1.1.7-1.6 2.3-1 3.7C93.7 87.3 93.8 87.2 96.2 82.7zM100.7 83.6c0-.9-.6-1-1.4-.6-.7.4-1.4 1.6-1.4 2.3.0.9.7 1 1.4.6C100.1 85.5 100.7 84.3 100.7 83.6zM124.9 73.4l9-4.6-9.2-3.6c-4.9-1.9-11.3-3.4-14-3.4-7 0-22.2 6-20.2 8 1.7 1.7 19.7 8 23.2 8.2C115 78 120 76 124.9 73.4zM58.6 63.9c-3.3-3.6-13-7.9-15.7-6.9-4.9 1.9-2.1 4.9 6.7 7C61.3 67 61.5 67 58.6 63.9z"/></g></svg>